<svg width="64" height="64" viewBox="0 0 64 64" xmlns="http://www.w3.org/2000/svg">
  <rect width="64" height="64" rx="18" fill="#10162C"/>
  <path
    d="M38.536 19.464a4.5 4.5 0 0 1 0 6.364l-1.236 1.236a2.25 2.25 0 0 1-2.828.26c-.91-.59-2.21-1.07-3.51.23-1.3 1.3-.82 2.6-.23 3.51a2.25 2.25 0 0 1-.26 2.828l-1.236 1.236a4.5 4.5 0 0 1-6.364 0l-.81-.81c-2.763-2.763-3.87-6.534-3.13-10.03.52-2.47 1.73-4.85 3.63-6.75 1.9-1.9 4.28-3.11 6.75-3.63 3.497-.74 7.268.367 10.03 3.13l.81.81Zm-8.011 25.19a12.2 12.2 0 0 0 8.62-3.58c2.31-2.31 3.49-5.36 3.52-8.43a2 2 0 0 1 3.999.068c-.04 4.053-1.616 8.05-4.708 11.142-3.092 3.092-7.09 4.668-11.142 4.708a2 2 0 0 1-.069-3.999Z"
    fill="#4EC5F1"
  />
  <path
    d="M27.172 31.414c-.78-.78-1.243-1.9-.555-2.586.688-.688 1.806-.228 2.586.555.78.78 1.243 1.9.555 2.586-.688.688-1.806.228-2.586-.555Z"
    fill="#FFFFFF"
    opacity="0.85"
  />
</svg>

